<svg width="55" height="55" viewBox="0 0 55 55" fill="none" xmlns="http://www.w3.org/2000/svg">
<path d="M27.1875 0C21.8103 0 16.5539 1.59452 12.0829 4.58192C7.61199 7.56932 4.12729 11.8154 2.06954 16.7833C0.01178 21.7512 -0.526623 27.2177 0.522412 32.4915C1.57145 37.7654 4.16081 42.6097 7.96305 46.412C11.7653 50.2142 16.6096 52.8036 21.8835 53.8526C27.1574 54.9016 32.6239 54.3632 37.5917 52.3055C42.5596 50.2477 46.8057 46.763 49.7931 42.2921C52.7805 37.8211 54.375 32.5647 54.375 27.1875C54.375 19.9769 51.5106 13.0617 46.412 7.96303C41.3133 2.86439 34.3981 0 27.1875 0ZM27.1875 52.5C22.1812 52.5 17.2873 51.0154 13.1246 48.2341C8.96202 45.4527 5.71765 41.4994 3.80181 36.8742C1.88597 32.2489 1.3847 27.1594 2.36138 22.2493C3.33807 17.3391 5.74886 12.8289 9.28887 9.28886C12.8289 5.74884 17.3391 3.33806 22.2493 2.36137C27.1594 1.38468 32.2489 1.88596 36.8742 3.8018C41.4994 5.71764 45.4527 8.96201 48.2341 13.1246C51.0155 17.2872 52.5 22.1812 52.5 27.1875C52.5 33.9008 49.8332 40.3391 45.0862 45.0861C40.3391 49.8332 33.9008 52.5 27.1875 52.5ZM41.25 28.125H13.125C12.8764 28.125 12.6379 28.2238 12.4621 28.3996C12.2863 28.5754 12.1875 28.8139 12.1875 29.0625C12.1875 38.3719 18.9188 45.9375 27.1875 45.9375C35.4563 45.9375 42.1875 38.3719 42.1875 29.0625C42.1875 28.8139 42.0887 28.5754 41.9129 28.3996C41.7371 28.2238 41.4987 28.125 41.25 28.125ZM14.0625 30H40.3125C40.2451 31.2697 40.0344 32.5277 39.6844 33.75H14.7281C14.3655 32.5291 14.1422 31.2711 14.0625 30ZM22.1719 42.9375C22.7265 42.1293 23.4696 41.4682 24.3369 41.0115C25.2043 40.5548 26.1698 40.3161 27.15 40.3161C28.1303 40.3161 29.0957 40.5548 29.9631 41.0115C30.8304 41.4682 31.5735 42.1293 32.1281 42.9375C30.5731 43.6781 28.8724 44.0623 27.15 44.0623C25.4276 44.0623 23.7269 43.6781 22.1719 42.9375ZM33.75 42C33.0128 40.9325 32.0345 40.0537 30.8943 39.4348C29.7542 38.8159 28.4843 38.4742 27.1875 38.4375C25.8899 38.4753 24.6195 38.8184 23.4793 39.439C22.3391 40.0595 21.3612 40.9402 20.625 42.0094C18.3065 40.4279 16.4934 38.2111 15.4031 35.625H38.9719C37.8817 38.2111 36.0686 40.4279 33.75 42.0094V42ZM31.0406 22.0781L35.7281 12.7031C35.744 12.6708 35.7663 12.6421 35.7938 12.6187C35.8546 12.5081 35.9456 12.4171 36.0563 12.3563C36.0796 12.3288 36.1083 12.3065 36.1406 12.2906C36.1406 12.2906 36.1875 12.2906 36.2063 12.2906C36.267 12.2663 36.3297 12.2475 36.3938 12.2344L36.5625 12.1875H36.7313C36.7953 12.2006 36.8581 12.2194 36.9188 12.2437C36.9188 12.2437 36.9188 12.2437 36.9844 12.2437C37.05 12.2437 37.0406 12.2906 37.0688 12.3094C37.1794 12.3702 37.2704 12.4613 37.3313 12.5719C37.3587 12.5952 37.381 12.6239 37.3969 12.6562L42.0844 22.0312C42.1956 22.2527 42.2146 22.5091 42.1373 22.7445C42.06 22.9799 41.8927 23.1751 41.6719 23.2875C41.5467 23.3734 41.4013 23.4251 41.25 23.4375C41.0769 23.437 40.9073 23.3885 40.76 23.2975C40.6127 23.2065 40.4935 23.0765 40.4156 22.9219L36.5625 15.225L32.7094 22.9219C32.6315 23.0765 32.5123 23.2065 32.365 23.2975C32.2177 23.3885 32.0481 23.437 31.875 23.4375C31.7279 23.4393 31.5828 23.4038 31.4531 23.3344C31.2323 23.222 31.065 23.0268 30.9877 22.7914C30.9104 22.556 30.9294 22.2995 31.0406 22.0781ZM12.2906 22.0781L16.9781 12.7031C16.994 12.6708 17.0163 12.6421 17.0438 12.6187C17.1046 12.5081 17.1956 12.4171 17.3063 12.3563C17.3063 12.3563 17.3625 12.3 17.3906 12.2906C17.4188 12.2813 17.4375 12.2906 17.4563 12.2906C17.517 12.2663 17.5797 12.2475 17.6438 12.2344L17.8125 12.1875H17.9813C18.0453 12.2006 18.1081 12.2194 18.1688 12.2437C18.1688 12.2437 18.2156 12.2437 18.2344 12.2437C18.2531 12.2437 18.2906 12.2906 18.3188 12.3094C18.4294 12.3702 18.5204 12.4613 18.5813 12.5719C18.6087 12.5952 18.631 12.6239 18.6469 12.6562L23.3344 22.0312C23.4456 22.2527 23.4646 22.5091 23.3873 22.7445C23.31 22.9799 23.1427 23.1751 22.9219 23.2875C22.7967 23.3734 22.6513 23.4251 22.5 23.4375C22.3269 23.437 22.1573 23.3885 22.01 23.2975C21.8627 23.2065 21.7435 23.0765 21.6656 22.9219L17.8125 15.225L13.9594 22.9219C13.8815 23.0765 13.7623 23.2065 13.615 23.2975C13.4677 23.3885 13.2981 23.437 13.125 23.4375C12.9779 23.4393 12.8328 23.4038 12.7031 23.3344C12.4823 23.222 12.315 23.0268 12.2377 22.7914C12.1604 22.556 12.1794 22.2995 12.2906 22.0781Z" fill="#56993E"/>
</svg>
